<?xml version="1.0" standalone="no"?>
<!DOCTYPE svg PUBLIC "-//W3C//DTD SVG 20010904//EN"
 "http://www.w3.org/TR/2001/REC-SVG-20010904/DTD/svg10.dtd">
<svg version="1.0" xmlns="http://www.w3.org/2000/svg"
 width="1024.000000pt" height="1024.000000pt" viewBox="0 0 1024.000000 1024.000000"
 preserveAspectRatio="xMidYMid meet">

<g transform="translate(0.000000,1024.000000) scale(0.100000,-0.100000)"
fill="#000000" stroke="none">
<path d="M0 5120 l0 -5120 5120 0 5120 0 0 5120 0 5120 -5120 0 -5120 0 0
-5120z m4965 2120 c40 -85 161 -333 269 -550 300 -602 457 -930 450 -942 -4
-6 -3 -8 3 -5 12 8 76 -121 67 -135 -4 -6 -3 -8 3 -5 6 4 47 -73 99 -184 49
-105 94 -194 101 -196 16 -6 84 38 208 134 206 160 376 330 462 463 63 95 64
97 44 54 -25 -53 -122 -183 -195 -261 -31 -34 -118 -115 -194 -181 -75 -66
-144 -130 -152 -141 -8 -12 -20 -21 -27 -21 -7 0 -13 -4 -13 -10 0 -5 -8 -10
-17 -10 -9 0 -13 -3 -10 -7 4 -3 0 -15 -10 -25 -9 -10 -11 -18 -5 -18 6 0 12
5 14 11 2 7 10 3 18 -7 8 -11 11 -16 6 -12 -12 10 -46 -10 -45 -25 0 -9 2 -9
6 1 8 19 23 14 23 -8 0 -11 5 -20 10 -20 6 0 10 -7 10 -16 0 -9 5 -12 12 -8 7
5 9 2 6 -8 -4 -8 -2 -21 3 -29 6 -10 9 -10 9 -1 0 6 4 12 9 12 5 0 7 -9 4 -20
-3 -12 0 -20 6 -20 7 0 10 3 8 8 -3 4 4 16 15 27 16 17 18 17 12 2 -5 -13 -2
-16 10 -11 9 3 16 10 16 15 0 5 5 9 11 9 6 0 24 9 40 21 16 11 29 18 29 15 0
-10 -207 -149 -360 -240 -138 -83 -303 -174 -775 -428 -246 -133 -735 -378
-735 -368 0 5 16 44 36 87 89 191 113 244 240 522 74 161 134 294 134 295 0 1
-73 -35 -162 -79 -333 -167 -618 -285 -883 -365 -274 -83 -465 -113 -720 -114
-139 -1 -169 2 -231 21 -199 63 -255 197 -163 393 96 206 356 446 794 735 263
173 675 418 675 401 0 -2 -28 -21 -62 -40 -122 -70 -203 -125 -201 -135 2 -6
-3 -8 -10 -6 -6 3 -25 -4 -42 -15 -28 -18 -28 -20 -7 -20 12 0 21 -3 21 -7 -4
-22 3 -24 23 -7 12 10 18 14 15 7 -4 -6 -3 -14 3 -18 5 -3 10 -1 10 6 0 7 3
10 6 6 4 -3 30 5 58 19 28 13 43 19 33 12 -10 -7 -103 -69 -205 -137 -241
-160 -408 -290 -554 -432 -125 -123 -189 -212 -214 -296 -20 -68 -12 -105 34
-148 42 -42 102 -62 215 -71 299 -23 738 122 1462 486 493 248 616 316 608
338 -12 35 -289 624 -370 790 -47 94 -89 172 -93 172 -10 0 -96 -176 -155
-315 -24 -55 -60 -136 -80 -180 -73 -159 -88 -192 -160 -355 -40 -91 -94 -210
-120 -265 -26 -55 -63 -133 -81 -174 -19 -40 -37 -71 -40 -68 -3 3 4 24 15 48
20 40 20 70 1 39 -7 -11 -10 -12 -10 -2 0 7 -5 10 -11 7 -6 -4 -8 -14 -5 -22
4 -11 2 -13 -9 -10 -8 4 -17 2 -20 -3 -3 -5 -12 -7 -20 -3 -11 4 -13 1 -8 -13
7 -18 6 -18 -11 -1 -21 21 -30 21 -50 2 -16 -17 -36 -20 -36 -6 0 5 -20 7 -44
6 -33 -3 -46 1 -50 12 -5 12 -3 13 7 5 8 -7 18 -7 27 -2 8 5 18 6 22 4 4 -3 8
0 8 5 0 6 -16 11 -35 11 -33 0 -40 7 -36 36 1 6 -10 10 -24 9 -14 -2 -28 2
-32 7 -3 6 -2 8 4 5 6 -4 10 8 11 29 1 22 -2 32 -9 28 -6 -3 -8 -12 -5 -19 2
-7 -2 -16 -11 -19 -10 -4 -13 -2 -10 6 3 7 42 94 87 193 147 324 216 497 204
517 -4 6 -3 8 3 5 16 -10 69 90 182 344 60 134 141 316 181 404 64 142 252
566 297 668 l17 39 20 -39 c10 -21 52 -108 91 -193z m1542 -30 c17 0 17 -15
-2 -30 -8 -7 -15 -19 -15 -26 0 -21 -12 -17 -37 12 l-22 26 22 28 c20 26 23
26 31 9 5 -11 15 -19 23 -19z m-737 -291 c0 -15 -5 -20 -22 -17 -34 5 -37 38
-4 38 20 0 26 -5 26 -21z m530 -169 c0 -5 -4 -10 -10 -10 -5 0 -10 5 -10 10 0
6 5 10 10 10 6 0 10 -4 10 -10z m-2635 -400 c9 -17 27 -36 40 -42 l24 -11 -39
-38 -40 -39 -34 37 -34 38 29 33 c16 18 29 37 29 42 0 18 9 10 25 -20z m-135
-330 c-20 -13 -33 -13 -25 0 3 6 14 10 23 10 15 0 15 -2 2 -10z m3180 -67
c-11 -17 -11 -17 -6 0 3 10 6 24 7 30 0 9 2 9 5 0 3 -7 0 -20 -6 -30z m-503
-74 c-15 -25 -22 -24 -34 4 -7 15 -7 29 0 45 l10 22 18 -26 c14 -21 15 -31 6
-45z m-3167 -8 c14 -15 13 -20 -6 -48 l-21 -31 -26 33 c-26 32 -26 33 -7 50
11 10 20 25 21 34 0 13 2 12 12 -3 7 -11 19 -26 27 -35z m1778 -244 c3 -12 -1
-15 -14 -10 -13 5 -15 3 -9 -7 5 -8 3 -11 -6 -8 -17 6 -19 30 -4 40 15 11 29
4 33 -15z m1305 -528 c-6 -6 -7 3 -4 23 4 28 6 29 9 9 2 -13 0 -27 -5 -32z
m977 -528 c0 -11 -5 -23 -11 -27 -15 -9 -33 12 -26 30 9 23 37 20 37 -3z
m-1250 -202 c12 -23 20 -43 18 -45 -3 -2 -14 17 -26 41 -27 56 -20 60 8 4z
m210 21 c0 -11 -7 -20 -15 -20 -8 0 -15 9 -15 20 0 11 7 20 15 20 8 0 15 -9
15 -20z m-146 -156 c3 -8 2 -12 -4 -9 -6 3 -10 10 -10 16 0 14 7 11 14 -7z
m-1714 -34 c0 -5 -9 -10 -20 -10 -11 0 -20 5 -20 10 0 6 9 10 20 10 11 0 20
-4 20 -10z m-8 -32 c-9 -9 -15 -9 -24 0 -9 9 -7 12 12 12 19 0 21 -3 12 -12z
m1006 -10 c-6 -18 -25 -21 -25 -3 0 8 7 15 15 15 7 0 12 -5 10 -12z m821 -143
c0 -5 -18 24 -39 65 -21 41 -39 80 -39 85 0 6 18 -24 39 -65 21 -41 39 -79 39
-85z m-3021 125 c3 -7 0 -10 -7 -6 -7 5 -9 1 -5 -8 3 -9 1 -16 -4 -16 -16 0
-25 19 -18 36 7 18 28 14 34 -6z m2525 -77 c-3 -7 -6 -13 -8 -13 -2 0 -5 6 -8
13 -3 8 1 14 8 14 7 0 11 -6 8 -14z m1307 -23 c0 -5 -2 -10 -4 -10 -3 0 -8 5
-11 10 -3 6 -1 10 4 10 6 0 11 -4 11 -10z m-761 -135 c0 -5 -6 1 -14 15 -8 14
-14 30 -14 35 0 6 6 -1 14 -15 8 -14 14 -29 14 -35z m-2040 -64 c-15 -5 -22 6
-14 19 6 9 10 9 16 -1 5 -8 4 -15 -2 -18z m2090 -46 c0 -5 -8 6 -19 25 -11 19
-19 40 -19 45 0 6 8 -6 19 -25 11 -19 19 -39 19 -45z m26 -45 l20 -25 -22 19
c-13 11 -23 24 -23 29 0 6 1 8 3 6 1 -2 11 -15 22 -29z m-1056 -51 c28 -27 29
-32 16 -46 -8 -8 -20 -24 -26 -35 -11 -19 -12 -19 -42 13 l-32 34 25 32 c14
17 26 32 27 32 1 1 15 -13 32 -30z m-403 6 c3 -8 3 -19 0 -24 -10 -16 -36 -1
-36 20 0 22 28 26 36 4z m918 -10 c5 -19 39 -52 85 -81 2 -2 -14 -20 -35 -41
-22 -21 -45 -47 -52 -58 -10 -17 -14 -17 -19 -5 -3 8 -26 34 -51 58 l-45 43
22 15 c32 23 71 67 71 81 0 23 18 14 24 -12z m-1714 -15 c0 -5 -4 -10 -10 -10
-5 0 -10 5 -10 10 0 6 5 10 10 10 6 0 10 -4 10 -10z m2505 -126 c23 -20 20
-18 -15 5 -25 17 -58 43 -75 57 -23 20 -20 18 15 -5 25 -17 59 -43 75 -57z
m195 -150 c0 -3 -36 23 -80 56 -44 33 -80 63 -80 66 0 3 36 -23 80 -56 44 -33
80 -63 80 -66z m31 -21 c13 -16 12 -17 -3 -4 -10 7 -18 15 -18 17 0 8 8 3 21
-13z m179 -140 c0 -3 -6 -1 -12 4 -7 6 -43 34 -80 62 -38 29 -68 55 -68 58 0
2 36 -24 80 -58 44 -34 80 -64 80 -66z m-1050 38 c0 -17 -18 -21 -24 -6 -3 9
0 15 9 15 8 0 15 -4 15 -9z"/>
<path d="M5343 5433 c-6 -16 -56 -120 -111 -233 -54 -113 -123 -259 -152 -325
-29 -66 -63 -141 -75 -167 -13 -27 -22 -48 -20 -48 6 0 142 72 245 130 47 26
140 77 207 114 67 37 126 73 132 80 7 8 -22 78 -94 231 -58 121 -105 226 -105
233 0 21 -15 13 -27 -15z"/>
<path d="M3940 5292 c0 -5 7 -9 15 -9 8 0 12 4 9 9 -3 4 -9 8 -15 8 -5 0 -9
-4 -9 -8z"/>
</g>
</svg>
