<?xml version="1.0" standalone="no"?>
<!DOCTYPE svg PUBLIC "-//W3C//DTD SVG 20010904//EN"
 "http://www.w3.org/TR/2001/REC-SVG-20010904/DTD/svg10.dtd">
<svg version="1.0" xmlns="http://www.w3.org/2000/svg"
 width="40.000000pt" height="40.000000pt" viewBox="0 0 40.000000 40.000000"
 preserveAspectRatio="xMidYMid meet">

<g transform="translate(0.000000,40.000000) scale(0.100000,-0.100000)"
fill="#000000" stroke="none">
<path d="M145 373 c-35 -9 -85 -53 -105 -93 -46 -89 -10 -194 82 -241 87 -45
193 -8 239 83 56 110 -20 244 -143 253 -29 2 -62 1 -73 -2z m79 -129 c31 -55
30 -50 10 -58 -8 -3 -13 -2 -10 3 8 12 -14 71 -25 71 -5 0 -9 -4 -9 -8 0 -5
-7 -17 -15 -28 -14 -17 -14 -15 0 20 8 21 15 40 15 42 0 13 11 -2 34 -42z
m-14 -54 c0 -11 -4 -20 -10 -20 -5 0 -10 5 -10 10 0 6 -12 8 -27 5 l-28 -6 30
15 c41 20 45 19 45 -4z"/>
</g>
</svg>
